<?xml version="1.0" encoding="UTF-8"?>
<!DOCTYPE svg PUBLIC "-//W3C//DTD SVG 1.1//EN" "http://www.w3.org/Graphics/SVG/1.1/DTD/svg11.dtd">
<svg xmlns="http://www.w3.org/2000/svg" version="1.1" width="512px" height="512px" style="shape-rendering:geometricPrecision; text-rendering:geometricPrecision; image-rendering:optimizeQuality; fill-rule:evenodd; clip-rule:evenodd" xmlns:xlink="http://www.w3.org/1999/xlink">
<g><path style="opacity:0.997" fill="#fed170" d="M 203.5,16.5 C 207.571,18.7119 211.571,21.2119 215.5,24C 222.833,32 230.167,40 237.5,48C 248.081,53.1932 258.748,58.1932 269.5,63C 284.369,75.5999 290.869,91.7666 289,111.5C 291.334,125.187 297.501,136.52 307.5,145.5C 299.566,146.888 291.566,148.555 283.5,150.5C 199.167,150.5 114.833,150.5 30.5,150.5C 35.7339,140.367 41.2339,130.367 47,120.5C 48.9939,111.625 49.9939,102.625 50,93.5C 52.6409,77.0543 61.4743,65.221 76.5,58C 84.6138,55.6311 92.2805,52.2977 99.5,48C 107.057,40.231 114.39,32.231 121.5,24C 129.906,17.6424 139.406,14.4757 150,14.5C 161.548,16.1813 173.048,18.1813 184.5,20.5C 191.083,20.1838 197.416,18.8505 203.5,16.5 Z"/></g>
<g><path style="opacity:0.986" fill="#fec45e" d="M 335.5,144.5 C 329.021,145.491 322.354,145.824 315.5,145.5C 312.833,145.5 310.167,145.5 307.5,145.5C 297.501,136.52 291.334,125.187 289,111.5C 290.869,91.7666 284.369,75.5999 269.5,63C 258.748,58.1932 248.081,53.1932 237.5,48C 230.167,40 222.833,32 215.5,24C 211.571,21.2119 207.571,18.7119 203.5,16.5C 228.576,10.5755 247.743,18.5755 261,40.5C 268.878,48.6925 278.378,54.1925 289.5,57C 301.938,61.7715 310.771,70.2715 316,82.5C 318.534,94.0371 320.201,105.704 321,117.5C 322.115,121.729 323.781,125.729 326,129.5C 329.677,134.19 332.844,139.19 335.5,144.5 Z"/></g>
<g><path style="opacity:1" fill="#ffc55e" d="M 193.5,42.5 C 213.846,40.6834 225.512,49.8501 228.5,70C 228.171,74.654 226.837,78.9874 224.5,83C 217.226,86.5673 212.893,84.4007 211.5,76.5C 214.705,61.8726 209.038,56.0393 194.5,59C 191.148,62.749 187.814,66.4157 184.5,70C 176.841,70.6712 173.674,67.1712 175,59.5C 178.833,51.1621 185,45.4954 193.5,42.5 Z"/></g>
<g><path style="opacity:1" fill="#ffc55e" d="M 109.5,69.5 C 122.044,68.512 131.877,73.1787 139,83.5C 139.989,92.5108 136.156,95.6774 127.5,93C 122.695,84.5898 116.029,82.5898 107.5,87C 102.034,92.236 101.2,98.0694 105,104.5C 105.04,114.115 100.706,116.782 92,112.5C 82.9153,92.0113 88.7486,77.678 109.5,69.5 Z"/></g>
<g><path style="opacity:1" fill="#ffc55e" d="M 169.5,94.5 C 185.737,91.6999 197.237,97.6999 204,112.5C 205.833,121.333 202.333,124.833 193.5,123C 190.743,118.821 187.743,114.821 184.5,111C 176.218,107.459 170.051,109.626 166,117.5C 165.667,121.833 165.333,126.167 165,130.5C 158.895,136.481 154.228,135.481 151,127.5C 148.865,111.763 155.032,100.763 169.5,94.5 Z"/></g>
<g><path style="opacity:0.978" fill="#1a4c65" d="M 335.5,144.5 C 398.344,148.908 446.511,177.574 480,230.5C 511.489,288.277 512.489,346.61 483,405.5C 464.486,438.843 437.986,463.676 403.5,480C 438.167,480.333 472.833,480.667 507.5,481C 509.35,481.69 510.684,482.856 511.5,484.5C 511.5,487.167 511.5,489.833 511.5,492.5C 510.038,493.458 508.705,494.624 507.5,496C 442.834,496.5 378.168,496.667 313.5,496.5C 395.94,483.903 448.107,437.237 470,356.5C 481.62,287.348 461.12,229.848 408.5,184C 381.125,162.309 350.125,149.476 315.5,145.5C 322.354,145.824 329.021,145.491 335.5,144.5 Z"/></g>
<g><path style="opacity:1" fill="#275e7c" d="M 307.5,145.5 C 310.167,145.5 312.833,145.5 315.5,145.5C 350.125,149.476 381.125,162.309 408.5,184C 461.12,229.848 481.62,287.348 470,356.5C 448.107,437.237 395.94,483.903 313.5,496.5C 310.57,495.701 307.57,495.368 304.5,495.5C 302.401,494.388 300.067,493.721 297.5,493.5C 241.135,482.335 199.135,451.668 171.5,401.5C 152.633,361.105 147.966,319.105 157.5,275.5C 167.63,241.565 185.63,212.565 211.5,188.5C 212.167,188.5 212.5,188.167 212.5,187.5C 222.269,180.439 232.269,173.606 242.5,167C 254.241,160.956 266.241,155.789 278.5,151.5C 280.415,151.784 282.081,151.451 283.5,150.5C 291.566,148.555 299.566,146.888 307.5,145.5 Z"/></g>
<g><path style="opacity:0.998" fill="#96c7f6" d="M 30.5,150.5 C 114.833,150.5 199.167,150.5 283.5,150.5C 282.081,151.451 280.415,151.784 278.5,151.5C 268.828,151.334 259.161,151.5 249.5,152C 224.658,158.915 202.658,170.749 183.5,187.5C 171.833,187.5 160.167,187.5 148.5,187.5C 126.167,187.5 103.833,187.5 81.5,187.5C 61.9928,187.17 42.6595,187.503 23.5,188.5C 12.4716,189.326 4.47156,184.993 -0.5,175.5C -0.5,171.167 -0.5,166.833 -0.5,162.5C 1.97883,157.857 5.64549,154.357 10.5,152C 17.0764,150.623 23.7431,150.123 30.5,150.5 Z"/></g>
<g><path style="opacity:1" fill="#4ca2f5" d="M 278.5,151.5 C 266.241,155.789 254.241,160.956 242.5,167C 232.269,173.606 222.269,180.439 212.5,187.5C 202.833,187.5 193.167,187.5 183.5,187.5C 202.658,170.749 224.658,158.915 249.5,152C 259.161,151.5 268.828,151.334 278.5,151.5 Z"/></g>
<g><path style="opacity:1" fill="#ddf4fb" d="M 314.5,263.5 C 337.185,252.456 345.685,234.456 340,209.5C 335.222,196.554 326.388,187.887 313.5,183.5C 335.095,176.027 352.595,181.694 366,200.5C 376.634,221.662 373.467,240.495 356.5,257C 343.471,266.378 329.471,268.545 314.5,263.5 Z"/></g>
<g><path style="opacity:1" fill="#f1fafe" d="M 313.5,183.5 C 326.388,187.887 335.222,196.554 340,209.5C 345.685,234.456 337.185,252.456 314.5,263.5C 295.979,256.128 286.645,242.462 286.5,222.5C 287.354,203.774 296.354,190.774 313.5,183.5 Z"/></g>
<g><path style="opacity:0.995" fill="#fd646f" d="M 81.5,187.5 C 93.114,290.132 104.447,392.799 115.5,495.5C 99.4965,495.667 83.4965,495.5 67.5,495C 61.6667,493.167 57.8333,489.333 56,483.5C 44.544,385.229 33.7106,286.896 23.5,188.5C 42.6595,187.503 61.9928,187.17 81.5,187.5 Z"/></g>
<g><path style="opacity:0.999" fill="#f2fafe" d="M 81.5,187.5 C 103.833,187.5 126.167,187.5 148.5,187.5C 149.427,199.843 150.427,212.176 151.5,224.5C 135.816,247.369 126.316,272.702 123,300.5C 118.082,356.927 135.249,405.26 174.5,445.5C 175.466,443.604 175.799,441.604 175.5,439.5C 176.473,441.948 176.806,444.615 176.5,447.5C 178.898,463.42 180.565,479.42 181.5,495.5C 159.5,495.5 137.5,495.5 115.5,495.5C 104.447,392.799 93.114,290.132 81.5,187.5 Z"/></g>
<g><path style="opacity:1" fill="#fd6570" d="M 148.5,187.5 C 160.167,187.5 171.833,187.5 183.5,187.5C 193.167,187.5 202.833,187.5 212.5,187.5C 212.5,188.167 212.167,188.5 211.5,188.5C 201.828,188.334 192.161,188.5 182.5,189C 171.617,197.883 162.117,208.05 154,219.5C 152.872,221.345 152.372,223.345 152.5,225.5C 151.833,225.5 151.5,225.167 151.5,224.5C 150.427,212.176 149.427,199.843 148.5,187.5 Z"/></g>
<g><path style="opacity:1" fill="#fd555a" d="M 211.5,188.5 C 185.63,212.565 167.63,241.565 157.5,275.5C 155.98,258.819 154.313,242.152 152.5,225.5C 152.372,223.345 152.872,221.345 154,219.5C 162.117,208.05 171.617,197.883 182.5,189C 192.161,188.5 201.828,188.334 211.5,188.5 Z"/></g>
<g><path style="opacity:1" fill="#def5fc" d="M 151.5,224.5 C 151.5,225.167 151.833,225.5 152.5,225.5C 154.313,242.152 155.98,258.819 157.5,275.5C 147.966,319.105 152.633,361.105 171.5,401.5C 173.052,414.138 174.386,426.805 175.5,439.5C 175.799,441.604 175.466,443.604 174.5,445.5C 135.249,405.26 118.082,356.927 123,300.5C 126.316,272.702 135.816,247.369 151.5,224.5 Z"/></g>
<g><path style="opacity:1" fill="#ddf4fb" d="M 220.5,330.5 C 235.007,325.49 244.173,315.49 248,300.5C 251.467,277.091 242.633,260.425 221.5,250.5C 236.525,245.2 250.525,247.366 263.5,257C 281.545,274.178 284.378,293.678 272,315.5C 258.203,332.38 241.036,337.38 220.5,330.5 Z"/></g>
<g><path style="opacity:1" fill="#ddf4fb" d="M 406.5,330.5 C 424.956,323.51 434.289,310.01 434.5,290C 433.864,274.686 427.197,262.686 414.5,254C 411.794,252.092 408.794,251.259 405.5,251.5C 428.031,243.732 446.198,249.732 460,269.5C 469.618,291.412 465.451,310.245 447.5,326C 436.838,333.06 425.171,335.393 412.5,333C 410.148,332.76 408.148,331.927 406.5,330.5 Z"/></g>
<g><path style="opacity:1" fill="#f1fafe" d="M 221.5,250.5 C 242.633,260.425 251.467,277.091 248,300.5C 244.173,315.49 235.007,325.49 220.5,330.5C 199.693,320.9 190.86,304.567 194,281.5C 198.083,266.588 207.249,256.254 221.5,250.5 Z"/></g>
<g><path style="opacity:1" fill="#f1fafe" d="M 405.5,251.5 C 408.794,251.259 411.794,252.092 414.5,254C 427.197,262.686 433.864,274.686 434.5,290C 434.289,310.01 424.956,323.51 406.5,330.5C 389.288,323.273 380.288,310.273 379.5,291.5C 379.631,272.561 388.298,259.227 405.5,251.5 Z"/></g>
<g><path style="opacity:1" fill="#4ca2f4" d="M 319.5,340.5 C 331.374,332.343 334.207,321.676 328,308.5C 325.499,305.152 322.332,302.818 318.5,301.5C 332.198,296.346 342.365,300.346 349,313.5C 351.547,330.415 344.381,340.081 327.5,342.5C 324.65,342.436 321.983,341.77 319.5,340.5 Z"/></g>
<g><path style="opacity:1" fill="#93c5f7" d="M 318.5,301.5 C 322.332,302.818 325.499,305.152 328,308.5C 334.207,321.676 331.374,332.343 319.5,340.5C 306.724,332.737 303.558,322.07 310,308.5C 312.416,305.577 315.25,303.243 318.5,301.5 Z"/></g>
<g><path style="opacity:1" fill="#ddf4fb" d="M 255.5,439.5 C 269.801,435.365 278.967,426.031 283,411.5C 287.239,391.878 281.406,376.045 265.5,364C 262.439,361.965 259.105,360.799 255.5,360.5C 277.267,353.142 295.1,358.809 309,377.5C 319.505,399.632 315.672,418.799 297.5,435C 284.096,443.855 270.096,445.355 255.5,439.5 Z"/></g>
<g><path style="opacity:1" fill="#ddf4fb" d="M 370.5,439.5 C 384.801,435.365 393.967,426.031 398,411.5C 402.137,390.955 395.637,374.788 378.5,363C 376.091,361.293 373.425,360.46 370.5,360.5C 391.632,353.167 409.132,358.5 423,376.5C 434.276,398.083 431.109,417.25 413.5,434C 400.07,444.129 385.736,445.963 370.5,439.5 Z"/></g>
<g><path style="opacity:1" fill="#f0fafe" d="M 255.5,360.5 C 259.105,360.799 262.439,361.965 265.5,364C 281.406,376.045 287.239,391.878 283,411.5C 278.967,426.031 269.801,435.365 255.5,439.5C 242.401,434.025 233.901,424.359 230,410.5C 226.075,391.862 231.575,376.695 246.5,365C 249.243,362.962 252.243,361.462 255.5,360.5 Z"/></g>
<g><path style="opacity:1" fill="#f1fafe" d="M 370.5,360.5 C 373.425,360.46 376.091,361.293 378.5,363C 395.637,374.788 402.137,390.955 398,411.5C 393.967,426.031 384.801,435.365 370.5,439.5C 352.944,431.933 343.944,418.433 343.5,399C 344.557,380.465 353.557,367.632 370.5,360.5 Z"/></g>
<g><path style="opacity:1" fill="#fd555a" d="M 171.5,401.5 C 199.135,451.668 241.135,482.335 297.5,493.5C 250.666,495.551 210.333,480.218 176.5,447.5C 176.806,444.615 176.473,441.948 175.5,439.5C 174.386,426.805 173.052,414.138 171.5,401.5 Z"/></g>
<g><path style="opacity:0.988" fill="#fd646f" d="M 176.5,447.5 C 210.333,480.218 250.666,495.551 297.5,493.5C 300.067,493.721 302.401,494.388 304.5,495.5C 263.5,495.5 222.5,495.5 181.5,495.5C 180.565,479.42 178.898,463.42 176.5,447.5 Z"/></g>
</svg>
